<svg xmlns="http://www.w3.org/2000/svg" viewBox="0 0 32 32" width="100%" height="100%">
    <circle cx="16" cy="16" r="14" fill="#FFFFFF"/>

    <g transform="translate(0, 2.61) scale(0.03556)">
        <g transform="translate(0.000000,753.000000) scale(0.100000,-0.100000)" fill="#000000" stroke="none">
            <path d="M4260 6810 c-547 -39 -952 -127 -1257 -276 -62 -29 -117 -54 -122
            -54 -26 0 -75 -202 -103 -420 -21 -167 -18 -768 5 -945 22 -168 47 -309 78
            -442 19 -82 24 -93 29 -68 l7 30 7 -26 c6 -21 -4 -47 -53 -133 -120 -211 -294
            -548 -357 -690 -142 -323 -287 -836 -301 -1068 -5 -83 -5 -87 20 -112 30 -30
            50 -32 125 -12 127 34 224 96 404 259 l107 97 5 -32 c2 -18 11 -104 20 -190
            35 -343 128 -743 228 -985 l30 -73 -37 -42 c-50 -59 -202 -321 -222 -384 -16
            -51 -12 -97 7 -78 5 5 31 54 58 109 45 92 144 264 198 344 12 18 20 40 16 49
            -8 22 15 12 89 -39 149 -101 329 -144 492 -116 l48 8 -6 -53 c-24 -207 -95
            -411 -176 -503 -39 -44 -30 -57 18 -29 91 53 179 277 188 479 3 73 7 87 46
            155 127 224 229 528 229 686 0 18 4 35 9 38 4 3 36 1 70 -5 166 -26 578 -28
            749 -3 l47 7 -19 -21 c-18 -21 -18 -23 2 -110 28 -120 109 -321 214 -532 75
            -150 85 -176 74 -190 -41 -46 -113 -227 -167 -419 -34 -122 -36 -144 -12 -139
            19 3 28 25 105 248 28 80 66 180 85 222 l35 77 30 -22 c26 -19 43 -22 122 -22
            83 0 100 3 155 30 72 34 68 38 105 -76 56 -170 70 -382 31 -475 -17 -41 -4
            -53 24 -23 36 39 46 87 45 219 -1 106 -5 139 -28 215 -15 49 -39 111 -53 137
            l-25 46 57 74 c31 40 74 107 95 148 103 205 197 598 244 1013 7 64 15 120 19
            123 7 7 43 -14 292 -167 223 -136 292 -172 373 -195 230 -64 291 168 155 591
            -37 115 -113 291 -383 890 -199 443 -273 598 -330 695 -25 41 -43 79 -42 84
            11 35 55 294 78 461 26 182 29 226 29 485 0 278 -5 348 -41 565 -35 211 -91
            391 -112 358 -5 -7 -29 -1 -72 19 -36 16 -94 35 -130 43 -36 7 -110 25 -165
            40 -192 51 -375 83 -640 111 -168 18 -670 26 -845 14z m1178 -741 c275 -73
            472 -303 538 -630 20 -98 15 -276 -10 -380 -41 -169 -131 -350 -229 -457 -34
            -36 -53 -46 -135 -72 -115 -36 -281 -74 -417 -95 -119 -19 -423 -31 -517 -21
            l-67 7 35 64 c45 81 89 204 120 330 31 130 31 196 0 261 -87 181 -103 337 -55
            544 46 201 181 390 314 439 118 44 281 48 423 10z m-1539 -34 c175 -42 315
            -171 357 -328 35 -133 43 -478 14 -627 -6 -30 -11 -75 -11 -100 -1 -25 -6 -51
            -11 -57 -7 -9 -7 -28 2 -60 17 -71 113 -330 144 -391 l26 -52 -32 0 c-38 0
            -341 35 -438 51 -36 6 -169 25 -297 44 l-232 33 -63 52 c-147 121 -251 294
            -294 494 -21 93 -21 280 -1 371 73 327 255 531 510 574 86 14 256 12 326 -4z
            m841 -1075 c0 -31 -70 -260 -111 -365 -39 -98 -101 -185 -133 -185 -24 0 -52
            45 -75 120 -13 41 -52 144 -87 228 -35 84 -64 155 -64 158 0 11 96 47 144 54
            28 4 113 8 189 8 126 0 137 -1 137 -18z m-170 -941 c138 -22 253 -105 315
            -228 82 -165 131 -471 142 -886 5 -194 3 -247 -13 -340 -10 -60 -18 -130 -19
            -155 l-1 -45 -47 -12 c-84 -21 -354 -36 -519 -29 -249 10 -555 55 -581 85 -8
            9 -19 41 -25 71 -7 30 -21 93 -32 140 -27 118 -44 324 -36 455 13 219 82 474
            167 619 56 94 177 215 254 253 138 69 268 93 395 72z m1050 -2539 c0 -5 -5
            -10 -11 -10 -5 0 -7 5 -4 10 3 6 8 10 11 10 2 0 4 -4 4 -10z"/>
            <path d="M5244 5871 c-114 -70 -182 -256 -171 -474 8 -170 50 -288 134 -378
            186 -199 403 -2 403 366 0 283 -125 505 -284 505 -32 0 -62 -7 -82 -19z m248
            -186 c35 -75 35 -91 0 -103 -32 -11 -67 0 -99 30 -36 33 -28 82 20 135 26 29
            41 18 79 -62z m-184 -216 c48 -17 111 -122 111 -189 1 -37 -32 -101 -70 -138
            -40 -39 -86 -65 -103 -59 -19 8 -74 127 -91 198 -8 35 -15 87 -15 116 0 49 1
            52 33 62 73 23 95 24 135 10z"/>
            <path d="M3710 5863 c-93 -33 -192 -172 -245 -344 -23 -73 -31 -270 -16 -351
            39 -200 177 -322 312 -276 164 55 279 287 279 560 0 220 -84 384 -215 417 -54
            14 -59 13 -115 -6z m239 -186 c10 -30 23 -70 26 -90 7 -33 5 -38 -20 -47 -41
            -16 -64 -12 -90 15 -37 36 -34 94 6 140 17 19 37 35 44 35 8 0 23 -24 34 -53z
            m-199 -223 c65 -55 78 -153 34 -242 -49 -100 -178 -218 -208 -193 -44 36 -79
            186 -74 315 l3 89 55 28 c75 39 146 40 190 3z"/>
            <path d="M3095 1193 c-27 -8 -83 -15 -122 -16 -77 -2 -94 -14 -48 -35 38 -18
            105 -14 177 8 34 11 64 20 66 20 2 0 0 -9 -3 -20 -10 -32 14 -130 32 -130 16
            0 15 31 -3 153 -7 42 -16 44 -99 20z"/>
            <path d="M3397 1190 c-24 -19 -132 -146 -151 -177 -5 -9 -1 -13 10 -13 33 0
            181 173 172 200 -2 7 -14 3 -31 -10z"/>
            <path d="M3440 1168 c0 -53 102 -220 122 -200 7 7 -8 44 -47 116 -56 106 -75
            126 -75 84z"/>
            <path d="M5257 1052 c-46 -31 -211 -196 -199 -200 19 -6 66 25 137 91 65 60
            117 127 98 127 -4 0 -20 -8 -36 -18z"/>
            <path d="M5307 1063 c-4 -3 -7 -32 -7 -63 0 -65 34 -143 64 -149 22 -4 21 4
            -17 131 -24 82 -30 92 -40 81z"/>
            <path d="M5507 1042 c-27 -29 -107 -181 -107 -202 0 -28 11 -25 41 13 31 38
            109 179 109 195 0 18 -25 14 -43 -6z"/>
            <path d="M5560 1045 c0 -22 27 -63 74 -112 39 -41 66 -55 66 -32 0 25 -110
            159 -131 159 -5 0 -9 -7 -9 -15z"/>
        </g>
    </g>
</svg>
